<svg width="16" height="17" viewBox="0 0 16 17" fill="none" xmlns="http://www.w3.org/2000/svg">
<path fill-rule="evenodd" clip-rule="evenodd" d="M4.64592 2.2758C4.69236 2.22924 4.74754 2.19229 4.80828 2.16709C4.86903 2.14188 4.93415 2.12891 4.99992 2.12891C5.06568 2.12891 5.13081 2.14188 5.19155 2.16709C5.2523 2.19229 5.30747 2.22924 5.35392 2.2758L11.3539 8.2758C11.4005 8.32225 11.4374 8.37742 11.4626 8.43817C11.4878 8.49891 11.5008 8.56403 11.5008 8.6298C11.5008 8.69557 11.4878 8.76069 11.4626 8.82143C11.4374 8.88218 11.4005 8.93735 11.3539 8.9838L5.35392 14.9838C5.26003 15.0777 5.13269 15.1304 4.99992 15.1304C4.86714 15.1304 4.7398 15.0777 4.64592 14.9838C4.55203 14.8899 4.49929 14.7626 4.49929 14.6298C4.49929 14.497 4.55203 14.3697 4.64592 14.2758L10.2929 8.6298L4.64592 2.9838C4.59935 2.93735 4.56241 2.88218 4.5372 2.82143C4.512 2.76069 4.49902 2.69557 4.49902 2.6298C4.49902 2.56403 4.512 2.49891 4.5372 2.43817C4.56241 2.37742 4.59935 2.32225 4.64592 2.2758Z" fill="white"/>
</svg>
