<svg width="31" height="31" viewBox="0 0 31 31" fill="none" xmlns="http://www.w3.org/2000/svg">
<g clip-path="url(#clip0_4661_616)">
<path d="M15.5 1.09863C7.47441 1.09863 0.96875 7.6043 0.96875 15.6299C0.96875 23.6555 7.47441 30.1611 15.5 30.1611C23.5256 30.1611 30.0312 23.6555 30.0312 15.6299C30.0312 7.6043 23.5256 1.09863 15.5 1.09863ZM15.5 23.1299C14.4646 23.1299 13.625 22.2902 13.625 21.2549C13.625 20.2195 14.4646 19.3799 15.5 19.3799C16.5354 19.3799 17.375 20.2195 17.375 21.2549C17.375 22.2902 16.5354 23.1299 15.5 23.1299ZM15.5 15.6299C12.3934 15.6299 9.875 18.1482 9.875 21.2549C9.875 24.3615 12.3934 26.8799 15.5 26.8799C9.28672 26.8799 4.25 21.8432 4.25 15.6299C4.25 9.4166 9.28672 4.37988 15.5 4.37988C18.6066 4.37988 21.125 6.89824 21.125 10.0049C21.125 13.1115 18.6066 15.6299 15.5 15.6299ZM15.5 8.12988C14.4646 8.12988 13.625 8.96953 13.625 10.0049C13.625 11.0402 14.4646 11.8799 15.5 11.8799C16.5354 11.8799 17.375 11.0402 17.375 10.0049C17.375 8.96953 16.5354 8.12988 15.5 8.12988Z" fill="white"/>
</g>
<defs>
<clipPath id="clip0_4661_616">
<rect width="30" height="30" fill="white" transform="translate(0.5 0.629883)"/>
</clipPath>
</defs>
</svg>
