<svg width="31" height="31" viewBox="0 0 31 31" fill="none" xmlns="http://www.w3.org/2000/svg">
<g clip-path="url(#clip0_4661_926)">
<path d="M12.2188 17.5049H5.65625C4.40234 17.5049 3.77539 19.0166 4.66016 19.9072L6.58789 21.7236L0.775391 27.542C0.412109 27.9053 0.412109 28.5029 0.775391 28.8662L2.26367 30.3545C2.62695 30.7178 3.22461 30.7178 3.58789 30.3545L9.40625 24.5361L11.2285 26.4697C12.1133 27.3545 13.625 26.7275 13.625 25.4736V18.9111C13.625 18.1318 12.998 17.5049 12.2188 17.5049ZM18.7812 13.7549H25.3438C26.5977 13.7549 27.2246 12.2373 26.3398 11.3525L24.4062 9.53613L30.2246 3.71777C30.5879 3.35449 30.5879 2.75684 30.2246 2.39355L28.7363 0.905273C28.373 0.541992 27.7754 0.541992 27.4121 0.905273L21.5938 6.72363L19.7715 4.79004C18.8867 3.90527 17.375 4.53223 17.375 5.78613V12.3486C17.375 13.1279 18.002 13.7549 18.7812 13.7549ZM24.4062 21.7236L26.3398 19.9014C27.2246 19.0166 26.5977 17.5049 25.3438 17.5049H18.7812C18.002 17.5049 17.375 18.1318 17.375 18.9111V25.4736C17.375 26.7275 18.8926 27.3545 19.7773 26.4697L21.5938 24.542L27.4121 30.3604C27.7754 30.7236 28.373 30.7236 28.7363 30.3604L30.2246 28.8721C30.5879 28.5088 30.5879 27.9111 30.2246 27.5479L24.4062 21.7236ZM11.2227 4.7959L9.40625 6.72363L3.58789 0.905273C3.22461 0.541992 2.62695 0.541992 2.26367 0.905273L0.775391 2.39355C0.412109 2.75684 0.412109 3.35449 0.775391 3.71777L6.59375 9.53613L4.66016 11.3584C3.77539 12.2432 4.40234 13.7549 5.65625 13.7549H12.2188C12.998 13.7549 13.625 13.1279 13.625 12.3486V5.78613C13.625 4.53809 12.1074 3.91113 11.2227 4.7959Z" fill="white"/>
</g>
<defs>
<clipPath id="clip0_4661_926">
<rect width="30" height="30" fill="white" transform="translate(0.5 0.629883)"/>
</clipPath>
</defs>
</svg>
