<svg width="31" height="31" viewBox="0 0 31 31" fill="none" xmlns="http://www.w3.org/2000/svg">
<g clip-path="url(#clip0_4661_794)">
<path d="M15.5 3.44238C22.2355 3.44238 27.6875 8.8933 27.6875 15.6299C27.6875 22.3654 22.2366 27.8174 15.5 27.8174C8.76447 27.8174 3.3125 22.3665 3.3125 15.6299C3.3125 8.89436 8.76342 3.44238 15.5 3.44238ZM15.5 1.09863C7.47459 1.09863 0.96875 7.60447 0.96875 15.6299C0.96875 23.6553 7.47459 30.1611 15.5 30.1611C23.5254 30.1611 30.0312 23.6553 30.0312 15.6299C30.0312 7.60447 23.5254 1.09863 15.5 1.09863ZM15.5 4.37988C9.28678 4.37988 4.25 9.41666 4.25 15.6299C4.25 21.8431 9.28678 26.8799 15.5 26.8799C21.7132 26.8799 26.75 21.8431 26.75 15.6299C26.75 9.41666 21.7132 4.37988 15.5 4.37988ZM15.5 6.95801C16.665 6.95801 17.6094 7.90242 17.6094 9.06738C17.6094 10.2323 16.665 11.1768 15.5 11.1768C14.335 11.1768 13.3906 10.2323 13.3906 9.06738C13.3906 7.90242 14.335 6.95801 15.5 6.95801ZM22.3989 12.7015C20.7165 13.0988 19.1463 13.4485 17.586 13.6277C17.6359 19.5471 18.3071 20.8378 19.053 22.7462C19.2649 23.2887 18.9969 23.9003 18.4544 24.1123C17.9117 24.3242 17.3001 24.0562 17.0882 23.5136C16.5781 22.2065 16.0871 21.1326 15.7838 18.9111H15.2163C14.9135 21.129 14.4233 22.2046 13.9119 23.5136C13.7001 24.0559 13.0886 24.3243 12.5458 24.1123C12.0032 23.9003 11.7352 23.2887 11.9471 22.7462C12.692 20.8395 13.3642 19.5504 13.4141 13.6277C11.8538 13.4486 10.2836 13.0988 8.60117 12.7015C8.09727 12.5825 7.7852 12.0776 7.9042 11.5737C8.0232 11.0697 8.52805 10.7577 9.03207 10.8767C14.6973 12.2143 16.3143 12.2116 21.9681 10.8767C22.472 10.7578 22.977 11.0697 23.096 11.5737C23.2149 12.0776 22.9028 12.5826 22.3989 12.7015Z" fill="white"/>
</g>
<defs>
<clipPath id="clip0_4661_794">
<rect width="30" height="30" fill="white" transform="translate(0.5 0.629883)"/>
</clipPath>
</defs>
</svg>
