<svg width="235" height="35" viewBox="0 0 235 35" fill="none" xmlns="http://www.w3.org/2000/svg">
<g clip-path="url(#clip0_4661_705)">
<path d="M16.3536 20.5749H14.0718L16.7931 12.8788H5.00315L2.28185 20.5749H0L5.91495 3.84497H8.1968L5.59535 11.2067H17.3853L19.9868 3.84497H22.2686L16.3536 20.5726V20.5749Z" fill="white"/>
<path d="M39.2238 3.71118C44.2293 3.755 45.2727 5.13879 43.7899 9.33166L41.6843 15.2865C40.2884 19.2349 38.0488 20.7064 33.2149 20.7064H30.503C25.669 20.7064 24.4705 19.2349 25.8664 15.2865L27.972 9.33166C29.4549 5.13879 31.4735 3.755 36.5119 3.71118H39.2238ZM35.9197 5.38326C32.5357 5.38326 31.4054 6.07515 30.2539 9.33166L28.1483 15.2865C26.9733 18.6099 28.1483 19.0112 31.0928 19.0343H33.8047C36.7657 19.0112 38.2251 18.6099 39.4001 15.2865L41.5057 9.33166C42.6572 6.07515 42.0156 5.38326 38.6316 5.38326H35.9197Z" fill="white"/>
<path d="M53.6951 20.5748H51.4133L56.736 5.51924H50.2101L50.8023 3.84717H66.136L65.5438 5.51924H59.0179L53.6951 20.5748Z" fill="white"/>
<path d="M72.615 20.5748L78.5299 3.84717H88.736C92.5218 3.84717 92.8814 5.34166 91.8474 8.26375C91.2246 10.0258 90.3763 11.2089 88.078 11.7878L88.0615 11.8316C90.6042 12.2329 90.4679 13.8381 89.7324 15.9138C88.6678 18.9235 86.7408 20.5748 83.331 20.5748H72.615ZM78.2338 11.1397H84.8679C87.608 11.1397 88.7289 10.6277 89.6525 8.01697C90.4491 5.76371 89.488 5.51924 87.098 5.51924H80.2243L78.2362 11.1397H78.2338ZM75.489 18.9004H82.7129C85.1828 18.9004 86.48 18.656 87.3847 16.0914C88.1649 13.8842 88.1555 12.768 85.1334 12.8118H77.6416L75.489 18.9004Z" fill="white"/>
<path d="M99.8422 20.5748H97.5603L103.475 3.84717H112.767C117.117 3.84717 118.668 4.85041 117.319 8.66505C116.492 11.006 115.554 12.7472 112.241 13.0816L112.224 13.1255C114.433 13.2592 115.047 14.3293 114.407 16.1375L112.838 20.5748H110.556L111.811 17.0277C112.56 14.9082 112.304 13.8819 109.536 13.8819H102.204L99.8375 20.5725L99.8422 20.5748ZM109.837 12.2098C113.388 12.1199 114.133 11.2297 115.11 8.46209C115.867 6.32184 115.801 5.51694 112.203 5.51694H105.167L102.801 12.2075H109.837V12.2098Z" fill="white"/>
<path d="M124.71 17.0277L121.899 20.5748H119.509L132.754 3.84717H135.976L137.581 20.5748H135.219L134.888 17.0277H124.71ZM133.868 5.40623L125.88 15.4664H134.796L133.868 5.40623Z" fill="white"/>
<path d="M147.448 8.57519C149.025 4.11479 151.638 3.71118 156.606 3.71118C160.956 3.71118 164.044 3.86801 162.195 8.41836H159.913C160.839 5.49627 160.207 5.38556 155.937 5.38556C151.476 5.38556 150.694 5.85374 149.874 8.17389C148.746 11.3635 150.668 11.096 154.395 11.1836C159.097 11.4073 161.553 11.2943 159.953 15.8239C158.282 20.5519 155.539 20.7087 150.463 20.7087C145.336 20.7087 142.857 20.1967 144.997 15.3557H147.279C145.926 19.0366 146.783 19.0366 151.053 19.0366C155.349 19.0366 156.531 19.0366 157.692 15.757C158.82 12.5674 156.912 13.1025 153.319 12.858C149.439 12.5905 145.888 12.9918 147.448 8.57519Z" fill="white"/>
<path d="M170.434 8.57519C172.011 4.11479 174.624 3.71118 179.594 3.71118C183.944 3.71118 187.032 3.86801 185.18 8.41836H182.898C183.824 5.49627 183.192 5.38556 178.922 5.38556C174.466 5.38556 173.681 5.85374 172.861 8.17389C171.733 11.3635 173.653 11.096 177.383 11.1836C182.083 11.4073 184.541 11.2943 182.94 15.8239C181.27 20.5519 178.527 20.7087 173.451 20.7087C168.323 20.7087 165.844 20.1967 167.987 15.3557H170.269C168.916 19.0366 169.773 19.0366 174.043 19.0366C178.339 19.0366 179.523 19.0366 180.682 15.757C181.81 12.5674 179.902 13.1025 176.309 12.858C172.429 12.5905 168.876 12.9918 170.436 8.57519H170.434Z" fill="white"/>
<path d="M56.7078 30.3879L55.6338 31.9215H54.769L59.8803 24.6709H61.013L61.2339 31.9215H60.3808L60.3432 30.3879H56.7054H56.7078ZM60.2375 25.3351L57.159 29.7375H60.3338L60.2375 25.3351Z" fill="white"/>
<path d="M76.5677 31.9215H75.7687L77.7451 26.1169L77.9002 25.681C77.919 25.6164 77.9519 25.5403 77.9707 25.4642C77.9871 25.4204 78.0177 25.3443 78.0529 25.2474H78.0318C77.9519 25.3674 77.8861 25.4527 77.8344 25.5196C77.7803 25.6072 77.7662 25.628 77.5453 25.9208L73.038 31.9215H72.2273L71.7808 25.9969C71.7667 25.7802 71.7502 25.5634 71.7385 25.3235H71.7267L71.621 25.6395C71.6163 25.6833 71.5505 25.8447 71.4612 26.1169L69.4848 31.9215H68.6741L71.151 24.6709H72.5539L72.8712 29.3663L72.9252 30.1158L72.9393 30.4963L72.9652 30.8768H72.9769L73.2636 30.4963L73.5409 30.1158L74.1026 29.3663L77.6182 24.6709H79.0423L76.5654 31.9215H76.5677Z" fill="white"/>
<path d="M92.5242 31.9215H91.7252L93.6992 26.1169L93.8543 25.681C93.8731 25.6164 93.9036 25.5403 93.9248 25.4642C93.9412 25.4204 93.9741 25.3443 94.007 25.2474H93.9859C93.906 25.3674 93.8402 25.4527 93.7885 25.5196C93.7344 25.6072 93.7203 25.628 93.4994 25.9208L88.9921 31.9215H88.1814L87.7349 25.9969C87.7184 25.7802 87.7043 25.5634 87.6926 25.3235H87.6808L87.5751 25.6395C87.5704 25.6833 87.5046 25.8447 87.4153 26.1169L85.4389 31.9215H84.6282L87.1051 24.6709H88.508L88.8253 29.3663L88.8793 30.1158L88.8934 30.4963L88.9193 30.8768H88.931L89.2201 30.4963L89.4974 30.1158L90.059 29.3663L93.5746 24.6709H95.0011L92.5242 31.9215Z" fill="white"/>
<path d="M108.765 24.6709L107.035 29.7468C106.796 30.4317 106.631 30.7799 106.384 31.0843C106.086 31.4764 105.595 31.7693 105.071 31.8892C104.77 31.9538 104.15 31.9976 103.329 31.9976C102.401 31.9976 102.039 31.9538 101.724 31.8131C101.193 31.5848 101.022 31.2481 101.102 30.6277C101.132 30.3879 101.198 30.1388 101.334 29.7468L103.064 24.6709H103.875L102.133 29.7468C102.044 30.0189 101.936 30.4202 101.915 30.5839C101.896 30.7361 101.931 30.8768 101.997 30.9529C102.22 31.225 102.526 31.2896 103.571 31.2896C105.451 31.2896 105.752 31.1166 106.222 29.7468L107.952 24.6709H108.76H108.765Z" fill="white"/>
<path d="M120.496 31.9215H119.169L117.836 26.9863L117.618 26.1722L117.509 25.7686L117.411 25.3674H117.39C117.336 25.5196 117.298 25.6602 117.246 25.8032C117.227 25.8586 117.157 26.0754 117.023 26.4559L115.166 31.9238H114.356L116.833 24.6732H118.149L119.312 28.9996L119.617 30.1296L119.761 30.6946L119.913 31.2596H119.925L120.015 30.9875L120.104 30.7154L120.294 30.1711L122.165 24.6709H122.973L120.496 31.9215Z" fill="white"/>
<path d="M129.372 31.9215H128.564L131.041 24.6709H131.84L129.372 31.9215Z" fill="white"/>
<path d="M139.51 31.9215H138.711L140.918 25.4319H138.575L138.838 24.6709H144.321L144.057 25.4435L141.729 25.4319L139.512 31.9215H139.51Z" fill="white"/>
<path d="M149.648 31.9215H148.837L151.314 24.6709H152.113L149.648 31.9215Z" fill="white"/>
<path d="M164.66 24.8232C165.13 25.04 165.334 25.5289 165.243 26.2369C165.177 26.7373 165.104 26.9771 164.512 28.6929C163.995 30.1827 163.713 30.7685 163.266 31.2159C162.843 31.6494 162.181 31.9216 161.452 31.9654C161.137 31.9861 160.735 31.9977 160.282 31.9977C159.17 31.9977 158.841 31.9538 158.446 31.7486C158.002 31.5087 157.831 31.0844 157.915 30.4341C157.988 29.8806 158.066 29.6177 158.677 27.8143C159.006 26.8687 159.1 26.652 159.342 26.1953C159.772 25.3905 160.293 24.9454 161.064 24.7378C161.424 24.641 161.978 24.5972 162.766 24.5972C163.922 24.5972 164.26 24.641 164.657 24.8255L164.66 24.8232ZM160.223 26.0731C159.943 26.4767 159.922 26.5528 159.318 28.3009C158.761 29.9198 158.757 29.9544 158.705 30.3441C158.646 30.7892 158.735 31.0175 158.989 31.1375C159.255 31.2574 159.574 31.2897 160.74 31.2897C162.101 31.2897 162.507 31.149 162.947 30.5171C163.226 30.1158 163.257 30.0397 163.851 28.2986C164.408 26.6681 164.411 26.6474 164.462 26.2553C164.521 25.8102 164.434 25.5704 164.178 25.4505C163.912 25.3305 163.583 25.2982 162.418 25.2982C161.069 25.2982 160.66 25.4389 160.223 26.0708V26.0731Z" fill="white"/>
<path d="M177.176 31.9215H175.848L174.516 26.9863L174.297 26.1722L174.189 25.7686L174.09 25.3674H174.067C174.015 25.5196 173.975 25.6602 173.923 25.8032C173.905 25.8586 173.834 26.0754 173.698 26.4559L171.841 31.9238H171.031L173.508 24.6732H174.824L175.987 28.9996L176.292 30.1296L176.436 30.6946L176.588 31.2596H176.6L176.689 30.9875L176.779 30.7154L176.967 30.1711L178.837 24.6709H179.648L177.171 31.9215H177.176Z" fill="white"/>
<path d="M224.775 16.7347L224.865 16.7739C219.067 18.9834 213.267 21.1928 207.47 23.4023C206.065 23.9189 204.662 24.4332 203.256 24.9498C200.601 25.9254 197.945 26.9009 195.29 27.8742C194.618 28.121 193.931 28.3747 193.407 28.8129C192.966 29.1819 192.536 29.8346 192.681 30.425C192.829 31.02 193.884 31.1192 194.451 31.0915C195.078 31.0615 195.659 30.8447 196.225 30.6326C206.403 26.7972 216.581 22.9618 226.759 19.1264C228.016 18.6536 229.304 18.1623 230.258 17.3113C230.669 16.9446 231.022 16.3703 230.693 15.9022C230.528 15.6692 230.239 15.5331 229.964 15.4086C221.511 11.6009 213.058 7.79317 204.603 3.98776C204.159 3.78712 203.707 3.58647 203.226 3.50344C202.453 3.36967 201.621 3.58877 201.155 4.11461C200.692 4.64045 200.662 5.46611 201.151 6.03346C201.48 6.414 201.98 6.64233 202.464 6.85681C209.902 10.1502 217.34 13.4413 224.778 16.7347H224.775Z" fill="#E9B51F"/>
<path d="M212.715 16.7349C206.955 15.0305 201.195 13.3262 195.438 11.6218C195.165 11.5411 194.883 11.4558 194.66 11.2874C194.152 10.9069 194.129 10.1781 194.514 9.74679C194.9 9.31551 195.586 9.15868 196.227 9.22787C196.613 9.26939 196.986 9.3824 197.36 9.4931C204.436 11.6172 211.512 13.7413 218.59 15.8654C219.123 16.0246 219.791 16.3867 219.643 16.8456C219.586 17.0209 219.42 17.1408 219.255 17.2446C217.862 18.1279 216.174 18.5984 214.517 19.0551C207.385 21.02 200.253 22.9827 193.118 24.9477C192.251 25.1875 191.241 25.4412 190.308 25.1622C189.795 25.0076 189.596 24.8693 189.784 24.4149C189.948 24.0159 190.289 23.6861 190.679 23.4486C191.22 23.1188 191.863 22.9435 192.498 22.7705C198.942 21.0177 205.385 19.2649 211.831 17.5121C212.377 17.3645 212.929 17.2123 213.397 16.9356C213.171 16.8687 212.945 16.8018 212.722 16.7349H212.715ZM200.323 12.4613C200.326 12.5028 200.378 12.5051 200.427 12.4705C200.462 12.4452 200.507 12.4152 200.519 12.3829C200.533 12.346 200.495 12.3299 200.443 12.3437C200.38 12.3691 200.319 12.4037 200.323 12.4613Z" fill="#EAE32E"/>
<path d="M202.84 34.1336C203.033 34.2604 203.282 34.3366 203.597 34.3389C204.102 34.3435 204.558 34.1359 204.993 33.9329C213.168 30.1229 221.346 26.3129 229.522 22.5029C230.664 21.9701 231.811 21.4374 232.885 20.8101C233.341 20.5448 233.799 20.2473 234.051 19.816C234.302 19.3848 234.293 18.7874 233.881 18.4207C233.249 17.8557 232.222 18.1647 231.475 18.5107C222.411 22.6943 213.347 26.878 204.281 31.0639C203.722 31.3222 203.15 31.5874 202.749 32.0118C202.208 32.5791 202.142 33.6793 202.84 34.1336Z" fill="#E65E26"/>
<path d="M234.088 15.3235C234.384 15.0905 234.626 14.7792 234.803 14.4678C234.92 14.2579 235.026 14.0296 234.995 13.7898C234.941 13.3493 234.471 13.0333 234.046 12.7796C227.785 9.04107 221.525 5.30255 215.267 1.56402C214.687 1.21807 214.092 0.865207 213.427 0.706071C212.762 0.546936 212.001 0.618432 211.547 1.03587C211.058 1.48791 211.046 2.21901 211.213 2.82788C211.394 3.47825 212.196 3.85188 212.809 4.20935C219.116 7.89022 225.426 11.5688 231.733 15.2497C232.077 15.4503 232.436 15.6556 232.833 15.7063C233.313 15.7686 233.738 15.6002 234.091 15.3235H234.088Z" fill="#E65E26"/>
<path d="M187.915 4.17236V4.35686H187.384V5.72211H187.168V4.35686H186.637V4.17236H187.918H187.915Z" fill="white"/>
<path d="M188.195 4.17236H188.501L188.954 5.48227L189.405 4.17236H189.711V5.72211H189.506V4.80656C189.506 4.77427 189.506 4.72354 189.506 4.64974C189.506 4.57594 189.506 4.49753 189.506 4.41451L189.055 5.72211H188.844L188.388 4.41451V4.46294C188.388 4.49984 188.388 4.5598 188.39 4.6359C188.392 4.71201 188.392 4.76966 188.392 4.80656V5.72211H188.188V4.17236H188.195Z" fill="white"/>
</g>
<defs>
<clipPath id="clip0_4661_705">
<rect width="235" height="33.709" fill="white" transform="translate(0 0.629883)"/>
</clipPath>
</defs>
</svg>
