<svg width="300" height="44" viewBox="0 0 300 44" fill="none" xmlns="http://www.w3.org/2000/svg">
<g clip-path="url(#clip0_4661_569)">
<path d="M20.877 25.9423H17.964L21.438 16.1249H6.387L2.913 25.9423H0L7.551 4.60114H10.464L7.143 13.9919H22.194L25.515 4.60114H28.428L20.877 25.9393V25.9423Z" fill="#374A56"/>
<path d="M50.073 4.43048C56.463 4.48638 57.795 6.25157 55.902 11.6001L53.214 19.1963C51.432 24.233 48.573 26.1099 42.402 26.1099H38.94C32.769 26.1099 31.239 24.233 33.021 19.1963L35.709 11.6001C37.602 6.25157 40.179 4.48638 46.611 4.43048H50.073ZM45.855 6.56342C41.535 6.56342 40.092 7.44601 38.622 11.6001L35.934 19.1963C34.434 23.4357 35.934 23.9476 39.693 23.977H43.155C46.935 23.9476 48.798 23.4357 50.298 19.1963L52.986 11.6001C54.456 7.44601 53.637 6.56342 49.317 6.56342H45.855Z" fill="#374A56"/>
<path d="M68.547 25.9423H65.634L72.429 6.737H64.098L64.854 4.60406H84.429L83.673 6.737H75.342L68.547 25.9423Z" fill="#374A56"/>
<path d="M92.7 25.9423L100.251 4.60406H113.28C118.113 4.60406 118.572 6.51047 117.252 10.238C116.457 12.4856 115.374 13.9949 112.44 14.7333L112.419 14.7892C115.665 15.3011 115.491 17.3487 114.552 19.9965C113.193 23.8358 110.733 25.9423 106.38 25.9423H92.7ZM99.873 13.9066H108.342C111.84 13.9066 113.271 13.2535 114.45 9.92317C115.467 7.04885 114.24 6.737 111.189 6.737H102.414L99.876 13.9066H99.873ZM96.369 23.8064H105.591C108.744 23.8064 110.4 23.4945 111.555 20.223C112.551 17.4076 112.539 15.9836 108.681 16.0395H99.117L96.369 23.8064Z" fill="#374A56"/>
<path d="M127.458 25.9423H124.545L132.096 4.60406H143.958C149.511 4.60406 151.491 5.88383 149.769 10.7499C148.713 13.736 147.516 15.9572 143.286 16.3838L143.265 16.4397C146.085 16.6103 146.868 17.9754 146.052 20.2819L144.048 25.9423H141.135L142.737 21.4175C143.694 18.7138 143.367 17.4046 139.833 17.4046H130.473L127.452 25.9393L127.458 25.9423ZM140.217 15.2717C144.75 15.157 145.701 14.0213 146.949 10.491C147.915 7.76081 147.831 6.73406 143.238 6.73406H134.256L131.235 15.2687H140.217V15.2717Z" fill="#374A56"/>
<path d="M159.204 21.4175L155.616 25.9423H152.565L169.473 4.60406H173.586L175.635 25.9423H172.62L172.197 21.4175H159.204ZM170.895 6.59284L160.698 19.4258H172.08L170.895 6.59284Z" fill="#374A56"/>
<path d="M188.232 10.6351C190.245 4.94533 193.581 4.43048 199.923 4.43048C205.476 4.43048 209.418 4.63054 207.057 10.4351H204.144C205.326 6.70757 204.519 6.56636 199.068 6.56636C193.374 6.56636 192.375 7.16358 191.328 10.1232C189.888 14.192 192.342 13.8507 197.1 13.9625C203.103 14.2479 206.238 14.1037 204.195 19.8818C202.062 25.9128 198.561 26.1129 192.081 26.1129C185.535 26.1129 182.37 25.4598 185.103 19.2845H188.016C186.288 23.9799 187.383 23.9799 192.834 23.9799C198.318 23.9799 199.827 23.9799 201.309 19.7964C202.749 15.7277 200.313 16.4102 195.726 16.0984C190.773 15.7571 186.24 16.269 188.232 10.6351Z" fill="#374A56"/>
<path d="M217.575 10.6351C219.588 4.94533 222.924 4.43048 229.269 4.43048C234.822 4.43048 238.764 4.63054 236.4 10.4351H233.487C234.669 6.70757 233.862 6.56636 228.411 6.56636C222.723 6.56636 221.721 7.16358 220.674 10.1232C219.234 14.192 221.685 13.8507 226.446 13.9625C232.446 14.2479 235.584 14.1037 233.541 19.8818C231.408 25.9128 227.907 26.1129 221.427 26.1129C214.881 26.1129 211.716 25.4598 214.452 19.2845H217.365C215.637 23.9799 216.732 23.9799 222.183 23.9799C227.667 23.9799 229.179 23.9799 230.658 19.7964C232.098 15.7277 229.662 16.4102 225.075 16.0984C220.122 15.7571 215.586 16.269 217.578 10.6351H217.575Z" fill="#374A56"/>
<path d="M72.393 38.46L71.022 40.4162H69.918L76.443 31.1672H77.889L78.171 40.4162H77.082L77.034 38.46H72.39H72.393ZM76.899 32.0145L72.969 37.6304H77.022L76.899 32.0145Z" fill="#374A56"/>
<path d="M97.7459 40.4162H96.7259L99.2489 33.0117L99.4469 32.4557C99.4709 32.3734 99.5129 32.2763 99.5369 32.1792C99.5579 32.1233 99.5969 32.0262 99.6419 31.9027H99.6149C99.5129 32.0557 99.4289 32.1645 99.3629 32.2498C99.2939 32.3616 99.2759 32.3881 98.9939 32.7617L93.2399 40.4162H92.2049L91.6349 32.8588C91.6169 32.5822 91.5959 32.3057 91.5809 31.9998H91.5659L91.4309 32.4028C91.4249 32.4587 91.3409 32.6646 91.2269 33.0117L88.7039 40.4162H87.6689L90.8309 31.1672H92.6219L93.0269 37.1567L93.0959 38.1128L93.1139 38.5982L93.1469 39.0836H93.1619L93.5279 38.5982L93.8819 38.1128L94.5989 37.1567L99.0869 31.1672H100.905L97.7429 40.4162H97.7459Z" fill="#374A56"/>
<path d="M118.116 40.4162H117.096L119.616 33.0117L119.814 32.4557C119.838 32.3734 119.877 32.2763 119.904 32.1792C119.925 32.1233 119.967 32.0262 120.009 31.9027H119.982C119.88 32.0557 119.796 32.1645 119.73 32.2498C119.661 32.3616 119.643 32.3881 119.361 32.7617L113.607 40.4162H112.572L112.002 32.8588C111.981 32.5822 111.963 32.3057 111.948 31.9998H111.933L111.798 32.4028C111.792 32.4587 111.708 32.6646 111.594 33.0117L109.071 40.4162H108.036L111.198 31.1672H112.989L113.394 37.1567L113.463 38.1128L113.481 38.5982L113.514 39.0836H113.529L113.898 38.5982L114.252 38.1128L114.969 37.1567L119.457 31.1672H121.278L118.116 40.4162Z" fill="#374A56"/>
<path d="M138.849 31.1672L136.641 37.6421C136.335 38.5158 136.125 38.9601 135.81 39.3484C135.429 39.8485 134.802 40.2221 134.133 40.3751C133.749 40.4574 132.957 40.5133 131.91 40.5133C130.725 40.5133 130.263 40.4574 129.861 40.278C129.183 39.9867 128.964 39.5572 129.066 38.7659C129.105 38.46 129.189 38.1422 129.363 37.6421L131.571 31.1672H132.606L130.383 37.6421C130.269 37.9893 130.131 38.5011 130.104 38.71C130.08 38.9042 130.125 39.0836 130.209 39.1807C130.494 39.5278 130.884 39.6102 132.219 39.6102C134.619 39.6102 135.003 39.3896 135.603 37.6421L137.811 31.1672H138.843H138.849Z" fill="#374A56"/>
<path d="M153.825 40.4162H152.13L150.429 34.1208L150.15 33.0823L150.012 32.5675L149.886 32.0557H149.859C149.79 32.2498 149.742 32.4293 149.676 32.6117C149.652 32.6823 149.562 32.9588 149.391 33.4442L147.021 40.4192H145.986L149.148 31.1702H150.828L152.313 36.689L152.703 38.1305L152.886 38.8512L153.081 39.572H153.096L153.21 39.2248L153.324 38.8777L153.567 38.1834L155.955 31.1672H156.987L153.825 40.4162Z" fill="#374A56"/>
<path d="M165.156 40.4162H164.124L167.286 31.1672H168.306L165.156 40.4162Z" fill="#374A56"/>
<path d="M178.098 40.4162H177.078L179.895 32.138H176.904L177.24 31.1672H184.239L183.903 32.1527L180.93 32.138L178.101 40.4162H178.098Z" fill="#374A56"/>
<path d="M191.04 40.4162H190.005L193.167 31.1672H194.187L191.04 40.4162Z" fill="#374A56"/>
<path d="M210.204 31.3614C210.804 31.6379 211.065 32.2615 210.948 33.1647C210.864 33.803 210.771 34.109 210.015 36.2977C209.355 38.1981 208.995 38.9453 208.425 39.516C207.885 40.0691 207.039 40.4162 206.109 40.4721C205.707 40.4986 205.194 40.5133 204.615 40.5133C203.196 40.5133 202.776 40.4574 202.272 40.1956C201.705 39.8896 201.486 39.3483 201.594 38.5187C201.687 37.8127 201.786 37.4774 202.566 35.1769C202.986 33.9707 203.106 33.6942 203.415 33.1117C203.964 32.085 204.63 31.5173 205.614 31.2525C206.073 31.129 206.781 31.0731 207.786 31.0731C209.262 31.0731 209.694 31.129 210.201 31.3643L210.204 31.3614ZM204.54 32.9558C204.183 33.4706 204.156 33.5677 203.385 35.7976C202.674 37.8627 202.668 37.9069 202.602 38.404C202.527 38.9718 202.641 39.263 202.965 39.416C203.304 39.569 203.712 39.6102 205.2 39.6102C206.937 39.6102 207.456 39.4307 208.017 38.6247C208.374 38.1128 208.413 38.0157 209.172 35.7946C209.883 33.7148 209.886 33.6883 209.952 33.1882C210.027 32.6204 209.916 32.3145 209.589 32.1615C209.25 32.0086 208.83 31.9674 207.342 31.9674C205.62 31.9674 205.098 32.1468 204.54 32.9529V32.9558Z" fill="#374A56"/>
<path d="M226.182 40.4162H224.487L222.786 34.1208L222.507 33.0823L222.369 32.5675L222.243 32.0557H222.213C222.147 32.2498 222.096 32.4293 222.03 32.6117C222.006 32.6823 221.916 32.9588 221.742 33.4442L219.372 40.4192H218.337L221.499 31.1702H223.179L224.664 36.689L225.054 38.1305L225.237 38.8512L225.432 39.572H225.447L225.561 39.2248L225.675 38.8777L225.915 38.1834L228.303 31.1672H229.338L226.176 40.4162H226.182Z" fill="#374A56"/>
<path d="M286.947 21.0438L287.061 21.0938C279.66 23.9123 272.256 26.7307 264.855 29.5491C263.061 30.2081 261.27 30.8642 259.476 31.5232C256.086 32.7676 252.696 34.0121 249.306 35.2536C248.448 35.5684 247.572 35.892 246.903 36.451C246.339 36.9217 245.79 37.7543 245.976 38.5074C246.165 39.2665 247.512 39.393 248.235 39.3577C249.036 39.3194 249.777 39.0429 250.5 38.7722C263.493 33.8797 276.486 28.9872 289.479 24.0947C291.084 23.4916 292.728 22.8649 293.946 21.7793C294.471 21.3116 294.921 20.579 294.501 19.9818C294.291 19.6846 293.922 19.5111 293.571 19.3522C282.78 14.495 271.989 9.63777 261.195 4.7835C260.628 4.52755 260.052 4.27159 259.437 4.16568C258.45 3.99505 257.388 4.27454 256.794 4.94531C256.203 5.61608 256.164 6.66931 256.788 7.39304C257.208 7.87846 257.847 8.16972 258.465 8.44332C267.96 12.6445 277.455 16.8427 286.95 21.0438H286.947Z" fill="#E9B51F"/>
<path d="M271.551 21.0438C264.198 18.8697 256.845 16.6956 249.495 14.5215C249.147 14.4185 248.787 14.3096 248.502 14.0949C247.854 13.6094 247.824 12.6798 248.316 12.1296C248.808 11.5795 249.684 11.3794 250.503 11.4677C250.995 11.5206 251.472 11.6648 251.949 11.806C260.982 14.5156 270.015 17.2251 279.051 19.9347C279.732 20.1377 280.584 20.5996 280.395 21.185C280.323 21.4086 280.11 21.5616 279.9 21.694C278.121 22.8208 275.967 23.4209 273.852 24.0035C264.747 26.51 255.642 29.0137 246.534 31.5202C245.427 31.8262 244.137 32.1498 242.946 31.7938C242.292 31.5967 242.037 31.4202 242.277 30.8406C242.487 30.3317 242.922 29.911 243.42 29.6079C244.11 29.1872 244.932 28.9636 245.742 28.743C253.968 26.5071 262.194 24.2712 270.423 22.0353C271.119 21.847 271.824 21.6528 272.421 21.2998C272.133 21.2145 271.845 21.1291 271.56 21.0438H271.551ZM255.732 15.5923C255.735 15.6453 255.801 15.6482 255.864 15.6041C255.909 15.5717 255.966 15.5335 255.981 15.4923C255.999 15.4452 255.951 15.4246 255.885 15.4423C255.804 15.4747 255.726 15.5188 255.732 15.5923Z" fill="#EAE32E"/>
<path d="M258.945 43.2382C259.191 43.4 259.509 43.4971 259.911 43.5C260.556 43.5059 261.138 43.2411 261.693 42.9822C272.13 38.1221 282.57 33.2619 293.007 28.4018C294.465 27.7222 295.929 27.0426 297.3 26.2424C297.882 25.904 298.467 25.5245 298.788 24.9744C299.109 24.4242 299.097 23.6622 298.572 23.1945C297.765 22.4737 296.454 22.8679 295.5 23.3092C283.929 28.646 272.358 33.9827 260.784 39.3224C260.07 39.6519 259.341 39.9902 258.828 40.5316C258.138 41.2553 258.054 42.6586 258.945 43.2382Z" fill="#E65E26"/>
<path d="M298.836 19.2434C299.214 18.9463 299.523 18.5491 299.748 18.1519C299.898 17.8842 300.033 17.5929 299.994 17.287C299.925 16.7251 299.325 16.322 298.782 15.9984C290.79 11.2294 282.798 6.46048 274.809 1.69153C274.068 1.25024 273.309 0.800113 272.46 0.597116C271.611 0.394119 270.639 0.485321 270.06 1.01782C269.436 1.59445 269.421 2.52706 269.634 3.30374C269.865 4.13338 270.888 4.60998 271.671 5.06599C279.723 9.76139 287.778 14.4538 295.83 19.1493C296.268 19.4052 296.727 19.667 297.234 19.7318C297.846 19.8112 298.389 19.5964 298.839 19.2434H298.836Z" fill="#E65E26"/>
<path d="M239.892 5.01886V5.2542H239.214V6.99575H238.938V5.2542H238.26V5.01886H239.895H239.892Z" fill="#374A56"/>
<path d="M240.249 5.01886H240.639L241.218 6.6898L241.794 5.01886H242.184V6.99575H241.923V5.82785C241.923 5.78667 241.923 5.72195 241.923 5.62781C241.923 5.53367 241.923 5.43365 241.923 5.32775L241.347 6.99575H241.077L240.495 5.32775V5.38953C240.495 5.4366 240.495 5.51308 240.498 5.61016C240.501 5.70724 240.501 5.78079 240.501 5.82785V6.99575H240.24V5.01886H240.249Z" fill="#374A56"/>
</g>
<defs>
<clipPath id="clip0_4661_569">
<rect width="300" height="43" fill="white" transform="translate(0 0.5)"/>
</clipPath>
</defs>
</svg>
